# Blender 3.3.1
# www.blender.org
mtllib door_test3.mtl
o Cube.001
v -1.900000 -0.900000 0.100000
v -1.900000 0.900000 0.100000
v -1.900000 -0.900000 -0.100000
v -1.900000 0.900000 -0.100000
v -0.100000 -0.900000 0.100000
v -0.100000 0.900000 0.100000
v -0.100000 -0.900000 -0.100000
v -0.100000 0.900000 -0.100000
v -2.000000 -1.000000 0.100000
v -2.000000 1.000000 0.100000
v -2.000000 1.000000 -0.100000
v -2.000000 -1.000000 -0.100000
v 0.000000 -1.000000 -0.100000
v 0.000000 1.000000 -0.100000
v 0.000000 1.000000 0.100000
v 0.000000 -1.000000 0.100000
v -1.900000 -0.900000 0.050000
v -1.900000 0.900000 0.050000
v -0.100000 0.900000 0.050000
v -0.100000 -0.900000 0.050000
v -1.900000 0.900000 -0.050000
v -1.900000 -0.900000 -0.050000
v -0.100000 -0.900000 -0.050000
v -0.100000 0.900000 -0.050000
vn -1.0000 -0.0000 -0.0000
vn 1.0000 -0.0000 -0.0000
vn -0.0000 1.0000 -0.0000
vn -0.0000 -1.0000 -0.0000
vn -0.0000 -0.0000 1.0000
vn -0.0000 -0.0000 -1.0000
vt 0.387500 0.987500
vt 0.612500 0.987500
vt 0.387500 0.262500
vt 0.612500 0.262500
vt 0.387500 0.762500
vt 0.612500 0.762500
vt 0.387500 0.487500
vt 0.612500 0.487500
vt 0.375000 0.000000
vt 0.125000 0.750000
vt 0.375000 1.000000
vt 0.625000 0.000000
vt 0.875000 0.750000
vt 0.625000 1.000000
vt 0.875000 0.500000
vt 0.625000 0.250000
vt 0.125000 0.500000
vt 0.375000 0.250000
vt 0.375000 0.500000
vt 0.625000 0.500000
vt 0.625000 0.750000
vt 0.375000 0.750000
vt 0.387500 0.987500
vt 0.612500 0.987500
vt 0.612500 0.762500
vt 0.387500 0.762500
vt 0.612500 0.262500
vt 0.387500 0.262500
vt 0.387500 0.487500
vt 0.612500 0.487500
s 0
f 9/9/1 10/12/1 11/16/1 12/18/1
f 8/8/1 7/7/1 23/29/1 24/30/1
f 13/19/2 14/20/2 15/21/2 16/22/2
f 1/1/3 5/5/3 20/26/3 17/23/3
f 12/17/4 13/19/4 16/22/4 9/10/4
f 14/20/3 11/15/3 10/13/3 15/21/3
f 1/1/5 2/2/5 10/14/5 9/11/5
f 4/4/6 3/3/6 12/18/6 11/16/6
f 3/3/6 7/7/6 13/19/6 12/18/6
f 8/8/6 4/4/6 11/16/6 14/20/6
f 7/7/6 8/8/6 14/20/6 13/19/6
f 6/6/5 5/5/5 16/22/5 15/21/5
f 5/5/5 1/1/5 9/11/5 16/22/5
f 2/2/5 6/6/5 15/21/5 10/14/5
f 20/26/5 19/25/5 18/24/5 17/23/5
f 2/2/2 1/1/2 17/23/2 18/24/2
f 6/6/4 2/2/4 18/24/4 19/25/4
f 5/5/1 6/6/1 19/25/1 20/26/1
f 22/28/6 21/27/6 24/30/6 23/29/6
f 7/7/3 3/3/3 22/28/3 23/29/3
f 4/4/4 8/8/4 24/30/4 21/27/4
f 3/3/2 4/4/2 21/27/2 22/28/2
