# Blender 3.3.1
# www.blender.org
mtllib platform.mtl
o Cube.002
v -0.758579 -0.100000 0.900000
v -0.900000 -0.100000 0.758579
v -0.900000 0.100000 0.758579
v -0.758579 0.100000 0.900000
v -0.900000 -0.100000 -0.758579
v -0.758579 -0.100000 -0.900000
v -0.758579 0.100000 -0.900000
v -0.900000 0.100000 -0.758579
v 0.900000 -0.100000 0.758579
v 0.758579 -0.100000 0.900000
v 0.758579 0.100000 0.900000
v 0.900000 0.100000 0.758579
v 0.758579 -0.100000 -0.900000
v 0.900000 -0.100000 -0.758579
v 0.900000 0.100000 -0.758579
v 0.758579 0.100000 -0.900000
v -1.000000 -0.100000 0.800000
v -0.800000 -0.100000 1.000000
v -0.800000 0.100000 1.000000
v -1.000000 0.100000 0.800000
v -1.000000 0.100000 -0.800000
v -0.800000 0.100000 -1.000000
v -0.800000 -0.100000 -1.000000
v -1.000000 -0.100000 -0.800000
v 0.800000 0.100000 -1.000000
v 1.000000 0.100000 -0.800000
v 1.000000 -0.100000 -0.800000
v 0.800000 -0.100000 -1.000000
v 1.000000 0.100000 0.800000
v 0.800000 0.100000 1.000000
v 0.800000 -0.100000 1.000000
v 1.000000 -0.100000 0.800000
v -0.758579 0.050000 0.900000
v -0.900000 0.050000 0.758579
v -0.900000 0.050000 -0.758579
v -0.758579 0.050000 -0.900000
v 0.758579 0.050000 -0.900000
v 0.900000 0.050000 -0.758579
v 0.900000 0.050000 0.758579
v 0.758579 0.050000 0.900000
v -0.900000 -0.050000 0.758579
v -0.758579 -0.050000 0.900000
v -0.758579 -0.050000 -0.900000
v -0.900000 -0.050000 -0.758579
v 0.900000 -0.050000 -0.758579
v 0.758579 -0.050000 -0.900000
v 0.758579 -0.050000 0.900000
v 0.900000 -0.050000 0.758579
vn -0.0000 -0.0000 1.0000
vn 1.0000 -0.0000 -0.0000
vn -1.0000 -0.0000 -0.0000
vn -0.0000 -0.0000 -1.0000
vn -0.7071 -0.0000 0.7071
vn -0.7071 -0.0000 -0.7071
vn 0.7071 -0.0000 -0.7071
vn 0.7071 -0.0000 0.7071
vn -0.0000 -1.0000 -0.0000
vn -0.0000 1.0000 -0.0000
vt 0.155178 0.737500
vt 0.137500 0.719822
vt 0.862500 0.719822
vt 0.844822 0.737500
vt 0.137500 0.530178
vt 0.155178 0.512500
vt 0.844822 0.512500
vt 0.862500 0.530178
vt 0.362500 0.719822
vt 0.344822 0.737500
vt 0.655178 0.737500
vt 0.637500 0.719822
vt 0.344822 0.512500
vt 0.362500 0.530178
vt 0.637500 0.530178
vt 0.655178 0.512500
vt 0.375000 0.025000
vt 0.125000 0.725000
vt 0.375000 0.975000
vt 0.375000 0.000000
vt 0.150000 0.750000
vt 0.625000 0.975000
vt 0.625000 0.000000
vt 0.850000 0.750000
vt 0.625000 0.025000
vt 0.875000 0.725000
vt 0.625000 0.225000
vt 0.875000 0.525000
vt 0.625000 0.275000
vt 0.850000 0.500000
vt 0.375000 0.275000
vt 0.150000 0.500000
vt 0.375000 0.225000
vt 0.125000 0.525000
vt 0.625000 0.475000
vt 0.650000 0.500000
vt 0.625000 0.525000
vt 0.375000 0.525000
vt 0.375000 0.475000
vt 0.350000 0.500000
vt 0.625000 0.725000
vt 0.625000 0.775000
vt 0.650000 0.750000
vt 0.375000 0.775000
vt 0.350000 0.750000
vt 0.375000 0.725000
vt 0.844822 0.737500
vt 0.862500 0.719822
vt 0.862500 0.530178
vt 0.844822 0.512500
vt 0.655178 0.512500
vt 0.637500 0.530178
vt 0.637500 0.719822
vt 0.655178 0.737500
vt 0.137500 0.719822
vt 0.155178 0.737500
vt 0.155178 0.512500
vt 0.137500 0.530178
vt 0.362500 0.530178
vt 0.344822 0.512500
vt 0.344822 0.737500
vt 0.362500 0.719822
s 0
usemtl metal_001
f 31/44/1 30/42/1 19/22/1 18/19/1
f 27/38/2 26/37/2 29/41/2 32/46/2
f 12/12/3 15/15/3 38/52/3 39/53/3
f 17/17/3 20/25/3 21/27/3 24/33/3
f 23/31/4 22/29/4 25/35/4 28/39/4
f 18/20/5 19/23/5 20/25/5 17/17/5
f 22/29/6 23/31/6 24/33/6 21/27/6
f 26/37/7 27/38/7 28/39/7 25/35/7
f 30/42/8 31/44/8 32/46/8 29/41/8
f 9/9/6 10/10/6 47/61/6 48/62/6
f 2/2/9 1/1/9 18/21/9 17/18/9
f 4/4/10 3/3/10 20/26/10 19/24/10
f 8/8/10 7/7/10 22/30/10 21/28/10
f 6/6/9 5/5/9 24/34/9 23/32/9
f 16/16/10 15/15/10 26/37/10 25/36/10
f 14/14/9 13/13/9 28/40/9 27/38/9
f 12/12/10 11/11/10 30/43/10 29/41/10
f 10/10/9 9/9/9 32/46/9 31/45/9
f 5/5/9 2/2/9 17/18/9 24/34/9
f 13/13/9 6/6/9 23/32/9 28/40/9
f 9/9/9 14/14/9 27/38/9 32/46/9
f 1/1/9 10/10/9 31/45/9 18/21/9
f 3/3/10 8/8/10 21/28/10 20/26/10
f 11/11/10 4/4/10 19/24/10 30/43/10
f 15/15/10 12/12/10 29/41/10 26/37/10
f 7/7/10 16/16/10 25/36/10 22/30/10
f 38/52/10 37/51/10 36/50/10 35/49/10 34/48/10 33/47/10 40/54/10 39/53/10
f 8/8/2 3/3/2 34/48/2 35/49/2
f 3/3/7 4/4/7 33/47/7 34/48/7
f 11/11/6 12/12/6 39/53/6 40/54/6
f 16/16/1 7/7/1 36/50/1 37/51/1
f 15/15/5 16/16/5 37/51/5 38/52/5
f 4/4/4 11/11/4 40/54/4 33/47/4
f 7/7/8 8/8/8 35/49/8 36/50/8
f 44/58/9 43/57/9 46/60/9 45/59/9 48/62/9 47/61/9 42/56/9 41/55/9
f 13/13/5 14/14/5 45/59/5 46/60/5
f 5/5/8 6/6/8 43/57/8 44/58/8
f 14/14/3 9/9/3 48/62/3 45/59/3
f 2/2/2 5/5/2 44/58/2 41/55/2
f 10/10/4 1/1/4 42/56/4 47/61/4
f 1/1/7 2/2/7 41/55/7 42/56/7
f 6/6/1 13/13/1 46/60/1 43/57/1
