# Blender 3.3.1
# www.blender.org
mtllib weighted_cube.mtl
o Cube.003
v -0.400000 -0.500000 0.400000
v -0.400000 -0.400000 0.500000
v -0.500000 -0.400000 0.400000
v -0.400000 0.400000 0.500000
v -0.400000 0.500000 0.400000
v -0.500000 0.400000 0.400000
v -0.400000 -0.500000 -0.400000
v -0.500000 -0.400000 -0.400000
v -0.400000 -0.400000 -0.500000
v -0.400000 0.500000 -0.400000
v -0.400000 0.400000 -0.500000
v -0.500000 0.400000 -0.400000
v 0.400000 -0.500000 0.400000
v 0.500000 -0.400000 0.400000
v 0.400000 -0.400000 0.500000
v 0.400000 0.500000 0.400000
v 0.400000 0.400000 0.500000
v 0.500000 0.400000 0.400000
v 0.400000 -0.500000 -0.400000
v 0.400000 -0.400000 -0.500000
v 0.500000 -0.400000 -0.400000
v 0.400000 0.500000 -0.400000
v 0.500000 0.400000 -0.400000
v 0.400000 0.400000 -0.500000
v -0.450000 -0.500000 -0.450000
v -0.450000 -0.500000 0.450000
v -0.500000 -0.450000 0.450000
v -0.500000 -0.450000 -0.450000
v -0.450000 -0.450000 0.500000
v -0.450000 0.450000 0.500000
v -0.500000 0.450000 0.450000
v -0.450000 0.500000 0.450000
v -0.450000 0.500000 -0.450000
v -0.500000 0.450000 -0.450000
v -0.450000 0.450000 -0.500000
v -0.450000 -0.450000 -0.500000
v 0.450000 -0.500000 -0.450000
v 0.450000 -0.450000 -0.500000
v 0.450000 0.500000 -0.450000
v 0.450000 0.450000 -0.500000
v 0.500000 0.450000 -0.450000
v 0.500000 -0.450000 -0.450000
v 0.450000 -0.500000 0.450000
v 0.500000 -0.450000 0.450000
v 0.450000 0.500000 0.450000
v 0.500000 0.450000 0.450000
v 0.450000 0.450000 0.500000
v 0.450000 -0.450000 0.500000
v -0.400000 0.450000 0.400000
v -0.400000 0.450000 -0.400000
v 0.400000 0.450000 -0.400000
v 0.400000 0.450000 0.400000
v -0.400000 -0.400000 0.450000
v -0.400000 0.400000 0.450000
v 0.400000 0.400000 0.450000
v 0.400000 -0.400000 0.450000
v -0.450000 -0.400000 0.400000
v -0.450000 -0.400000 -0.400000
v -0.450000 0.400000 0.400000
v -0.450000 0.400000 -0.400000
v 0.450000 0.400000 -0.400000
v 0.450000 -0.400000 -0.400000
v 0.450000 -0.400000 0.400000
v 0.450000 0.400000 0.400000
v -0.400000 0.400000 -0.450000
v -0.400000 -0.400000 -0.450000
v 0.400000 -0.400000 -0.450000
v 0.400000 0.400000 -0.450000
v -0.400000 -0.450000 -0.400000
v -0.400000 -0.450000 0.400000
v 0.400000 -0.450000 -0.400000
v 0.400000 -0.450000 0.400000
vn -1.0000 -0.0000 -0.0000
vn -0.0000 -0.0000 1.0000
vn 1.0000 -0.0000 -0.0000
vn -0.5774 -0.5774 0.5774
vn -0.5774 0.5774 0.5774
vn -0.5774 -0.5774 -0.5774
vn -0.5774 0.5774 -0.5774
vn 0.5774 -0.5774 0.5774
vn 0.5774 0.5774 0.5774
vn 0.5774 -0.5774 -0.5774
vn 0.5774 0.5774 -0.5774
vn -0.7071 -0.7071 -0.0000
vn -0.7071 -0.0000 0.7071
vn -0.7071 0.7071 -0.0000
vn -0.7071 -0.0000 -0.7071
vn -0.0000 -0.7071 -0.7071
vn -0.0000 0.7071 -0.7071
vn 0.7071 -0.0000 -0.7071
vn 0.7071 -0.7071 -0.0000
vn 0.7071 0.7071 -0.0000
vn 0.7071 -0.0000 0.7071
vn -0.0000 -0.7071 0.7071
vn -0.0000 0.7071 0.7071
vn -0.0000 -1.0000 -0.0000
vn -0.0000 1.0000 -0.0000
vn -0.0000 -0.0000 -1.0000
vt 0.150000 0.725000
vt 0.400000 0.975000
vt 0.400000 0.025000
vt 0.600000 0.975000
vt 0.850000 0.725000
vt 0.600000 0.025000
vt 0.150000 0.525000
vt 0.400000 0.225000
vt 0.400000 0.275000
vt 0.850000 0.525000
vt 0.600000 0.275000
vt 0.600000 0.225000
vt 0.350000 0.725000
vt 0.400000 0.725000
vt 0.400000 0.775000
vt 0.650000 0.725000
vt 0.600000 0.775000
vt 0.600000 0.725000
vt 0.350000 0.525000
vt 0.400000 0.475000
vt 0.400000 0.525000
vt 0.650000 0.525000
vt 0.600000 0.525000
vt 0.600000 0.475000
vt 0.137500 0.512500
vt 0.137500 0.737500
vt 0.125000 0.737500
vt 0.387500 0.012500
vt 0.125000 0.512500
vt 0.387500 0.237500
vt 0.387500 0.000000
vt 0.137500 0.750000
vt 0.387500 0.987500
vt 0.612500 0.000000
vt 0.612500 0.987500
vt 0.612500 0.012500
vt 0.625000 0.012500
vt 0.625000 0.987500
vt 0.862500 0.737500
vt 0.625000 0.237500
vt 0.625000 0.262500
vt 0.862500 0.512500
vt 0.612500 0.237500
vt 0.612500 0.250000
vt 0.612500 0.262500
vt 0.137500 0.500000
vt 0.387500 0.262500
vt 0.362500 0.512500
vt 0.362500 0.500000
vt 0.387500 0.487500
vt 0.625000 0.487500
vt 0.637500 0.512500
vt 0.612500 0.487500
vt 0.612500 0.500000
vt 0.612500 0.512500
vt 0.375000 0.512500
vt 0.387500 0.512500
vt 0.362500 0.737500
vt 0.375000 0.737500
vt 0.387500 0.737500
vt 0.625000 0.762500
vt 0.637500 0.737500
vt 0.612500 0.750000
vt 0.612500 0.737500
vt 0.612500 0.762500
vt 0.362500 0.750000
vt 0.387500 0.762500
vt 0.850000 0.725000
vt 0.850000 0.525000
vt 0.650000 0.525000
vt 0.650000 0.725000
vt 0.400000 0.975000
vt 0.600000 0.975000
vt 0.600000 0.775000
vt 0.400000 0.775000
vt 0.400000 0.025000
vt 0.400000 0.225000
vt 0.600000 0.025000
vt 0.600000 0.225000
vt 0.600000 0.525000
vt 0.400000 0.525000
vt 0.400000 0.725000
vt 0.600000 0.725000
vt 0.600000 0.275000
vt 0.400000 0.275000
vt 0.400000 0.475000
vt 0.600000 0.475000
vt 0.150000 0.525000
vt 0.150000 0.725000
vt 0.350000 0.525000
vt 0.350000 0.725000
s 0
f 15/15/1 17/17/1 55/74/1 56/75/1
f 21/21/2 23/23/2 61/80/2 62/81/2
f 16/16/1 22/22/1 51/70/1 52/71/1
f 12/12/2 8/8/2 58/77/2 60/79/2
f 9/9/3 11/11/3 65/84/3 66/85/3
f 26/26/4 29/32/4 27/27/4
f 30/34/5 32/37/5 31/36/5
f 25/25/6 28/29/6 36/46/6
f 33/40/7 35/44/7 34/43/7
f 43/58/8 44/59/8 48/66/8
f 45/61/9 47/65/9 46/63/9
f 37/48/10 38/49/10 42/56/10
f 39/51/11 41/54/11 40/53/11
f 25/25/12 26/26/12 27/27/12 28/29/12
f 29/31/13 30/34/13 31/36/13 27/28/13
f 32/37/14 33/40/14 34/43/14 31/36/14
f 35/45/15 36/47/15 28/30/15 34/43/15
f 37/48/16 25/25/16 36/46/16 38/49/16
f 33/41/17 39/51/17 40/53/17 35/45/17
f 41/55/18 42/57/18 38/50/18 40/53/18
f 43/58/19 37/48/19 42/57/19 44/60/19
f 39/52/20 45/62/20 46/64/20 41/55/20
f 47/65/21 48/67/21 44/60/21 46/64/21
f 26/26/22 43/58/22 48/66/22 29/32/22
f 45/61/23 32/38/23 30/35/23 47/65/23
f 19/19/1 13/13/1 72/91/1 71/90/1
f 7/7/24 1/1/24 26/26/24 25/25/24
f 3/3/1 8/8/1 28/30/1 27/28/1
f 2/2/2 4/4/2 30/35/2 29/33/2
f 6/6/1 3/3/1 27/28/1 31/36/1
f 5/5/25 10/10/25 33/42/25 32/39/25
f 12/12/1 6/6/1 31/36/1 34/43/1
f 11/11/26 9/9/26 36/47/26 35/45/26
f 8/8/1 12/12/1 34/43/1 28/30/1
f 19/19/24 7/7/24 25/25/24 37/48/24
f 9/9/26 20/20/26 38/50/26 36/47/26
f 10/10/25 22/22/25 39/52/25 33/42/25
f 24/24/26 11/11/26 35/45/26 40/53/26
f 23/23/3 21/21/3 42/57/3 41/55/3
f 20/20/26 24/24/26 40/53/26 38/50/26
f 13/13/24 19/19/24 37/48/24 43/58/24
f 21/21/3 14/14/3 44/60/3 42/57/3
f 22/22/25 16/16/25 45/62/25 39/52/25
f 18/18/3 23/23/3 41/55/3 46/64/3
f 17/17/2 15/15/2 48/67/2 47/65/2
f 14/14/3 18/18/3 46/64/3 44/60/3
f 1/1/24 13/13/24 43/58/24 26/26/24
f 15/15/2 2/2/2 29/33/2 48/67/2
f 16/16/25 5/5/25 32/39/25 45/62/25
f 4/4/2 17/17/2 47/65/2 30/35/2
f 51/70/25 50/69/25 49/68/25 52/71/25
f 22/22/2 10/10/2 50/69/2 51/70/2
f 10/10/3 5/5/3 49/68/3 50/69/3
f 5/5/26 16/16/26 52/71/26 49/68/26
f 56/75/2 55/74/2 54/73/2 53/72/2
f 17/17/24 4/4/24 54/73/24 55/74/24
f 2/2/25 15/15/25 56/75/25 53/72/25
f 4/4/3 2/2/3 53/72/3 54/73/3
f 57/76/1 59/78/1 60/79/1 58/77/1
f 6/6/24 12/12/24 60/79/24 59/78/24
f 3/3/26 6/6/26 59/78/26 57/76/26
f 8/8/25 3/3/25 57/76/25 58/77/25
f 62/81/3 61/80/3 64/83/3 63/82/3
f 18/18/26 14/14/26 63/82/26 64/83/26
f 23/23/24 18/18/24 64/83/24 61/80/24
f 14/14/25 21/21/25 62/81/25 63/82/25
f 66/85/26 65/84/26 68/87/26 67/86/26
f 24/24/1 20/20/1 67/86/1 68/87/1
f 11/11/24 24/24/24 68/87/24 65/84/24
f 20/20/25 9/9/25 66/85/25 67/86/25
f 69/88/24 71/90/24 72/91/24 70/89/24
f 7/7/2 19/19/2 71/90/2 69/88/2
f 1/1/3 7/7/3 69/88/3 70/89/3
f 13/13/26 1/1/26 70/89/26 72/91/26
