{
    "asset" : {
        "generator" : "Khronos glTF Blender I/O v3.3.32",
        "version" : "2.0"
    },
    "scene" : 0,
    "scenes" : [
        {
            "extras" : {
                "vs" : {
                    "export_list" : [
                        {
                            "name" : "melee_robot.smd",
                            "collection" : {
                                "name" : "melee_robot",
                                "type" : "Collection"
                            },
                            "ob_type" : "COLLECTION",
                            "icon" : "GROUP"
                        },
                        {
                            "name" : "anims\\Armature.smd",
                            "ob_type" : "ACTION",
                            "icon" : "NLA",
                            "obj" : {
                                "name" : "Armature",
                                "type" : "Object"
                            }
                        },
                        {
                            "name" : "Cylinder.smd",
                            "ob_type" : "OBJECT",
                            "icon" : "OUTLINER_OB_MESH",
                            "obj" : {
                                "name" : "Cylinder",
                                "type" : "Object"
                            }
                        },
                        {
                            "name" : "Plane.smd",
                            "ob_type" : "OBJECT",
                            "icon" : "OUTLINER_OB_MESH",
                            "obj" : {
                                "name" : "Plane",
                                "type" : "Object"
                            }
                        }
                    ],
                    "export_format" : 0,
                    "export_path" : "//..\\customMapFormat\\",
                    "export_list_active" : 2
                }
            },
            "name" : "Scene",
            "nodes" : [
                0
            ]
        }
    ],
    "nodes" : [
        {
            "extras" : {
                "vs" : {},
                "test" : "yay"
            },
            "mesh" : 0,
            "name" : "Plane.003",
            "rotation" : [
                1,
                0,
                0,
                0
            ],
            "scale" : [
                -1,
                -1,
                -1
            ]
        }
    ],
    "animations" : [
        {
            "channels" : [
                {
                    "sampler" : 0,
                    "target" : {
                        "node" : 0,
                        "path" : "translation"
                    }
                },
                {
                    "sampler" : 1,
                    "target" : {
                        "node" : 0,
                        "path" : "rotation"
                    }
                },
                {
                    "sampler" : 2,
                    "target" : {
                        "node" : 0,
                        "path" : "scale"
                    }
                }
            ],
            "name" : "Plane.003",
            "samplers" : [
                {
                    "input" : 8,
                    "interpolation" : "LINEAR",
                    "output" : 9
                },
                {
                    "input" : 8,
                    "interpolation" : "LINEAR",
                    "output" : 10
                },
                {
                    "input" : 8,
                    "interpolation" : "LINEAR",
                    "output" : 11
                }
            ]
        }
    ],
    "materials" : [
        {
            "name" : "bricks/brick_red_32x",
            "pbrMetallicRoughness" : {
                "baseColorTexture" : {
                    "index" : 0
                },
                "metallicFactor" : 0,
                "roughnessFactor" : 0.5
            }
        },
        {
            "doubleSided" : true,
            "name" : "concrete/tan_concrete_floor_32x",
            "pbrMetallicRoughness" : {
                "baseColorTexture" : {
                    "index" : 1
                },
                "metallicFactor" : 0,
                "roughnessFactor" : 0.5
            }
        }
    ],
    "meshes" : [
        {
            "name" : "Plane.004",
            "primitives" : [
                {
                    "attributes" : {
                        "POSITION" : 0,
                        "NORMAL" : 1,
                        "TEXCOORD_0" : 2
                    },
                    "indices" : 3,
                    "material" : 0
                },
                {
                    "attributes" : {
                        "POSITION" : 4,
                        "NORMAL" : 5,
                        "TEXCOORD_0" : 6
                    },
                    "indices" : 7,
                    "material" : 1
                }
            ]
        }
    ],
    "textures" : [
        {
            "sampler" : 0,
            "source" : 0
        },
        {
            "sampler" : 0,
            "source" : 1
        }
    ],
    "images" : [
        {
            "bufferView" : 4,
            "mimeType" : "image/png",
            "name" : "brick_red_32x"
        },
        {
            "bufferView" : 9,
            "mimeType" : "image/png",
            "name" : "tan_concrete_floor_32x"
        }
    ],
    "accessors" : [
        {
            "bufferView" : 0,
            "componentType" : 5126,
            "count" : 91,
            "max" : [
                21,
                6,
                22
            ],
            "min" : [
                -11,
                -4,
                -6
            ],
            "type" : "VEC3"
        },
        {
            "bufferView" : 1,
            "componentType" : 5126,
            "count" : 91,
            "type" : "VEC3"
        },
        {
            "bufferView" : 2,
            "componentType" : 5126,
            "count" : 91,
            "type" : "VEC2"
        },
        {
            "bufferView" : 3,
            "componentType" : 5123,
            "count" : 135,
            "type" : "SCALAR"
        },
        {
            "bufferView" : 5,
            "componentType" : 5126,
            "count" : 24,
            "max" : [
                21,
                5,
                22
            ],
            "min" : [
                -11,
                -4,
                -6
            ],
            "type" : "VEC3"
        },
        {
            "bufferView" : 6,
            "componentType" : 5126,
            "count" : 24,
            "type" : "VEC3"
        },
        {
            "bufferView" : 7,
            "componentType" : 5126,
            "count" : 24,
            "type" : "VEC2"
        },
        {
            "bufferView" : 8,
            "componentType" : 5123,
            "count" : 36,
            "type" : "SCALAR"
        },
        {
            "bufferView" : 10,
            "componentType" : 5126,
            "count" : 101,
            "max" : [
                4.208333333333333
            ],
            "min" : [
                0.041666666666666664
            ],
            "type" : "SCALAR"
        },
        {
            "bufferView" : 11,
            "componentType" : 5126,
            "count" : 101,
            "type" : "VEC3"
        },
        {
            "bufferView" : 12,
            "componentType" : 5126,
            "count" : 101,
            "type" : "VEC4"
        },
        {
            "bufferView" : 13,
            "componentType" : 5126,
            "count" : 101,
            "type" : "VEC3"
        }
    ],
    "bufferViews" : [
        {
            "buffer" : 0,
            "byteLength" : 1092,
            "byteOffset" : 0,
            "target" : 34962
        },
        {
            "buffer" : 0,
            "byteLength" : 1092,
            "byteOffset" : 1092,
            "target" : 34962
        },
        {
            "buffer" : 0,
            "byteLength" : 728,
            "byteOffset" : 2184,
            "target" : 34962
        },
        {
            "buffer" : 0,
            "byteLength" : 270,
            "byteOffset" : 2912,
            "target" : 34963
        },
        {
            "buffer" : 0,
            "byteLength" : 652,
            "byteOffset" : 3184
        },
        {
            "buffer" : 0,
            "byteLength" : 288,
            "byteOffset" : 3836,
            "target" : 34962
        },
        {
            "buffer" : 0,
            "byteLength" : 288,
            "byteOffset" : 4124,
            "target" : 34962
        },
        {
            "buffer" : 0,
            "byteLength" : 192,
            "byteOffset" : 4412,
            "target" : 34962
        },
        {
            "buffer" : 0,
            "byteLength" : 72,
            "byteOffset" : 4604,
            "target" : 34963
        },
        {
            "buffer" : 0,
            "byteLength" : 542,
            "byteOffset" : 4676
        },
        {
            "buffer" : 0,
            "byteLength" : 404,
            "byteOffset" : 5220
        },
        {
            "buffer" : 0,
            "byteLength" : 1212,
            "byteOffset" : 5624
        },
        {
            "buffer" : 0,
            "byteLength" : 1616,
            "byteOffset" : 6836
        },
        {
            "buffer" : 0,
            "byteLength" : 1212,
            "byteOffset" : 8452
        }
    ],
    "samplers" : [
        {
            "magFilter" : 9729,
            "minFilter" : 9987
        }
    ],
    "buffers" : [
        {
            "byteLength" : 9664,
            "uri" : "data:application/octet-stream;base64,"
        }
    ]
}
